<svg xmlns="http://www.w3.org/2000/svg" width="30.681" height="38.311" viewBox="0 0 30.681 38.311">
  <g id="depart03" transform="translate(0)">
    <path id="Path_2518" data-name="Path 2518" d="M298.238,338.724c-.324,0-.648.295-.648,1.282s.324,1.282.648,1.282.648-.295.648-1.282S298.563,338.724,298.238,338.724Z" transform="translate(-279.118 -313.356)" fill="#de442c"/>
    <path id="Path_2519" data-name="Path 2519" d="M197.291,273.787c-.324,0-.648.295-.648,1.282s.324,1.282.648,1.282.648-.295.648-1.282S197.616,273.787,197.291,273.787Z" transform="translate(-185.731 -253.283)" fill="#de442c"/>
    <path id="Path_2520" data-name="Path 2520" d="M77.5,13.591a42.33,42.33,0,0,1-6.226-8.763,20.177,20.177,0,0,1-1.509-3.551L69.426,0,68.22.538a12.052,12.052,0,0,0-5.34,5.317,12.157,12.157,0,0,0-1.117,5.382A1.733,1.733,0,0,1,58.8,12.47l-2.247-2.247-.773,1.066c-.08.111-1.969,2.715-2.313,3.236A15.341,15.341,0,1,0,81.621,22.97,14.581,14.581,0,0,0,77.5,13.591ZM70.061,29.523A2.636,2.636,0,0,1,67.32,26.65a2.744,2.744,0,1,1,5.482,0A2.636,2.636,0,0,1,70.061,29.523Zm-1.5-10.463h2.491L64,29.376H61.513Zm-8.8,2.726a2.744,2.744,0,1,1,5.482,0,2.744,2.744,0,1,1-5.482,0Z" transform="translate(-50.94)" fill="#de442c"/>
  </g>
</svg>
