<svg xmlns="http://www.w3.org/2000/svg" width="24.43" height="27.796" viewBox="0 0 24.43 27.796">
  <g id="icion_3" transform="translate(-31)">
    <path id="Path_2542" data-name="Path 2542" d="M134.029,391h-11.4v4.94H121v1.629h14.658V395.94h-1.629Z" transform="translate(-85.114 -369.773)" fill="#ae1d6d"/>
    <path id="Path_2543" data-name="Path 2543" d="M226,115.272v2.251l2.251-1.125Z" transform="translate(-184.414 -109.014)" fill="#ae1d6d"/>
    <path id="Path_2544" data-name="Path 2544" d="M121,7.383c0,4.951,1.761,6.558,3.177,7.85a3.916,3.916,0,0,1,1.725,3.339A4.6,4.6,0,0,1,125.8,19.6h5.065a4.586,4.586,0,0,1-.105-1.023,3.918,3.918,0,0,1,1.725-3.342c1.416-1.291,3.177-2.9,3.177-7.85V0H121Zm4.072-3.761,7.521,3.761-7.521,3.761Z" transform="translate(-85.114)" fill="#ae1d6d"/>
    <path id="Path_2545" data-name="Path 2545" d="M32.629,5.755V1.629h1.629V0H31V5.755a4.068,4.068,0,0,0,3.425,4.006c-.071-.522-.112-1.095-.133-1.7A2.438,2.438,0,0,1,32.629,5.755Z" fill="#ae1d6d"/>
    <path id="Path_2546" data-name="Path 2546" d="M418.084,0V1.629h1.629V5.755a2.438,2.438,0,0,1-1.663,2.3c-.021.608-.063,1.18-.133,1.7a4.068,4.068,0,0,0,3.425-4.006V0Z" transform="translate(-365.912)" fill="#ae1d6d"/>
  </g>
</svg>
