<svg xmlns="http://www.w3.org/2000/svg" width="20" height="23.102" viewBox="0 0 20 23.102">
  <g id="icion_1" transform="translate(-177.811 19.294)">
    <path id="Path_2521" data-name="Path 2521" d="M195.333,94.251a10,10,0,0,0-7.123,17.017v6.085h14.246v-6.085a10,10,0,0,0-7.123-17.017Zm-4.183,16.442a2.844,2.844,0,0,1-1.435-5.3l4.232,2.969A2.844,2.844,0,0,1,191.15,110.693Zm8.366,0a2.845,2.845,0,0,1-2.832-2.577l4.214-2.755a2.845,2.845,0,0,1-1.382,5.332Z" transform="translate(-7.522 -113.545)" fill="#ae1d6d"/>
    <path id="Path_2522" data-name="Path 2522" d="M255.632,94.251l-.061,0v23.1h7.183v-6.085a10,10,0,0,0-7.123-17.018Zm4.183,16.442a2.845,2.845,0,0,1-2.832-2.577l4.214-2.755a2.845,2.845,0,0,1-1.382,5.332Z" transform="translate(-67.82 -113.545)" fill="#ae1d6d"/>
  </g>
</svg>
