<svg xmlns="http://www.w3.org/2000/svg" width="24" height="24" viewBox="0 0 24 24">
  <g id="icion_4" transform="translate(0)">
    <path id="Path_2528" data-name="Path 2528" d="M210.574,258.95l.927-.927-2.1-1.172Zm0,0" transform="translate(-199.586 -244.812)" fill="#ae1d6d"/>
    <path id="Path_2529" data-name="Path 2529" d="M21.414,0H15.86a5.94,5.94,0,0,0-3.711,1.537L.755,12.931a2.591,2.591,0,0,0,0,3.657l6.657,6.657a2.592,2.592,0,0,0,3.657,0L22.462,11.851A5.94,5.94,0,0,0,24,8.14V2.586A2.589,2.589,0,0,0,21.414,0ZM9.938,18.063c-.7.7-1.582.879-1.891.57a.55.55,0,0,1-.069-.677c.218-.218.772.048,1.315-.5.32-.32.453-.74.133-1.06-.8-.8-2.263,1.156-3.526-.107a1.587,1.587,0,0,1,.229-2.359c.314-.314,1.086-.937,1.438-.586.122.122.282.453.091.644-.165.165-.49.085-.937.532-.383.384-.447.756-.192,1.012.66.661,2.141-1.278,3.52.1a1.591,1.591,0,0,1-.112,2.423Zm3.951-4.047c-.117.117-.245.17-.373.1l-.911-.506-1.22,1.22.506.911c.075.128.021.256-.1.373-.186.186-.554.32-.724.149a.444.444,0,0,1-.043-.064L8.708,11.816a.612.612,0,0,1,.208-.676.616.616,0,0,1,.682-.213l4.378,2.322a.333.333,0,0,1,.064.043C14.2,13.457,14.076,13.83,13.89,14.016Zm2.8-2.8L15,12.908c-.155.155-.378.229-.522.085L11.014,9.532c-.149-.149-.042-.384.133-.559s.41-.282.559-.133l3.073,3.073,1.3-1.3c.139-.139.357-.059.511.1s.234.373.1.511Zm2.785-2.785-1.9,1.9c-.155.155-.378.229-.522.085L13.6,6.96c-.144-.144-.069-.367.085-.522l1.9-1.9c.149-.149.373-.064.517.08.165.165.229.389.09.527L14.677,6.656l1.065,1.065.81-.809a.348.348,0,0,1,.5.058.341.341,0,0,1,.048.485l-.81.81,1.07,1.07,1.507-1.507c.139-.138.362-.075.527.091.144.144.229.367.08.517Zm.6-3.466a.7.7,0,1,1,.206-.5A.709.709,0,0,1,20.066,4.969Zm0,0" fill="#ae1d6d"/>
  </g>
</svg>
