<svg xmlns="http://www.w3.org/2000/svg" width="30.364" height="20.875" viewBox="0 0 30.364 20.875">
  <g id="icion_5" transform="translate(0 -80)">
    <g id="Group_797" data-name="Group 797" transform="translate(21.321 92.893)">
      <g id="Group_796" data-name="Group 796" transform="translate(0 0)">
        <ellipse id="Ellipse_25" data-name="Ellipse 25" cx="0.5" cy="1" rx="0.5" ry="1" transform="translate(0.042 0.482)" fill="#ae1d6d"/>
      </g>
    </g>
    <g id="Group_799" data-name="Group 799" transform="translate(15.182 85.526)">
      <g id="Group_798" data-name="Group 798" transform="translate(0 0)">
        <ellipse id="Ellipse_26" data-name="Ellipse 26" cx="1" cy="1.5" rx="1" ry="1.5" transform="translate(0.182 -0.151)" fill="#ae1d6d"/>
      </g>
    </g>
    <g id="Group_801" data-name="Group 801" transform="translate(0 80)">
      <g id="Group_800" data-name="Group 800" transform="translate(0 0)">
        <path id="Path_2547" data-name="Path 2547" d="M28.466,80H10.438a.956.956,0,0,0-.672.277L8.54,81.5,7.314,80.277A.956.956,0,0,0,6.642,80H1.9A1.9,1.9,0,0,0,0,81.9v17.08a1.9,1.9,0,0,0,1.9,1.9H6.642a.956.956,0,0,0,.672-.277L8.54,99.37,9.766,100.6a.949.949,0,0,0,.672.279H28.466a1.9,1.9,0,0,0,1.9-1.9V81.9A1.9,1.9,0,0,0,28.466,80ZM9.489,97.08h-1.9v-1.9h1.9Zm0-3.8h-1.9v-1.9h1.9Zm0-3.8h-1.9v-1.9h1.9Zm0-3.8h-1.9V83.8h1.9Zm6.642-1.9a2.847,2.847,0,1,1-2.847,2.847A2.85,2.85,0,0,1,16.131,83.8Zm-1.9,13.284a.949.949,0,0,1-.729-1.556l9.489-11.386a.948.948,0,1,1,1.456,1.216L14.96,96.74A.948.948,0,0,1,14.233,97.08Zm7.591,0a2.847,2.847,0,1,1,2.847-2.847A2.85,2.85,0,0,1,21.824,97.08Z" transform="translate(0 -80)" fill="#ae1d6d"/>
      </g>
    </g>
  </g>
</svg>
