<svg xmlns="http://www.w3.org/2000/svg" width="23.625" height="23.625" viewBox="0 0 23.625 23.625">
  <g id="Icon_ionic-md-chatbubbles" data-name="Icon ionic-md-chatbubbles" transform="translate(-3.375 -3.375)">
    <path id="Path_2540" data-name="Path 2540" d="M8.191,23.063a2.964,2.964,0,0,1-2.544-2.544V11.25H5.1a1.733,1.733,0,0,0-1.726,1.726V28.514L6.7,25.221H18.913a1.754,1.754,0,0,0,1.726-1.755v-.4Z" transform="translate(0 -1.514)" fill="#ae1d6d"/>
    <path id="Path_2541" data-name="Path 2541" d="M25.924,3.375H10.068A1.987,1.987,0,0,0,8.086,5.357V18.2a1.992,1.992,0,0,0,1.982,1.988H23.6l4.31,3.01V5.357A1.987,1.987,0,0,0,25.924,3.375Z" transform="translate(-0.906)" fill="#ae1d6d"/>
  </g>
</svg>
