<svg xmlns="http://www.w3.org/2000/svg" width="18.387" height="20.9" viewBox="0 0 18.387 20.9">
  <g id="Group_806" data-name="Group 806" transform="translate(-26.613 -52.83)">
    <path id="bell" d="M9.143,20.9a2.612,2.612,0,0,0,2.611-2.612H6.532A2.612,2.612,0,0,0,9.143,20.9Zm8.792-6.111c-.789-.847-2.264-2.122-2.264-6.3a6.446,6.446,0,0,0-5.222-6.334V1.306a1.305,1.305,0,1,0-2.611,0v.851A6.446,6.446,0,0,0,2.615,8.49c0,4.176-1.476,5.451-2.264,6.3A1.275,1.275,0,0,0,0,15.675a1.307,1.307,0,0,0,1.31,1.306H16.976a1.307,1.307,0,0,0,1.31-1.306A1.275,1.275,0,0,0,17.935,14.788Z" transform="translate(26.614 52.83)" fill="#fff"/>
    <path id="Path_2532" data-name="Path 2532" d="M4.5,0A4.5,4.5,0,1,1,0,4.5,4.5,4.5,0,0,1,4.5,0Z" transform="translate(36 56)" fill="#cc1569"/>
  </g>
</svg>
