<svg xmlns="http://www.w3.org/2000/svg" xmlns:xlink="http://www.w3.org/1999/xlink" version="1.1" x="0px" y="0px" viewBox="0 0 100 125" enable-background="new 0 0 100 100" xml:space="preserve"><g><rect x="21.331" y="26.356" width="47.841" height="5.229"/><rect x="21.331" y="15.477" width="47.841" height="5.228"/><rect x="21.331" y="37.239" width="47.841" height="5.228"/><rect x="21.331" y="48.119" width="22.765" height="5.229"/><path d="M41.271,81.438H19.795c-2.322,0-4.205-1.883-4.205-4.205V13.408c0-2.323,1.883-4.207,4.205-4.207h50.821   c2.319,0,4.202,1.884,4.202,4.207v33.971c1.66,0.476,3.25,1.109,4.768,1.877V11.151c0-3.485-2.824-6.306-6.307-6.306H17.134   c-3.484,0-6.309,2.821-6.309,6.306v68.338c0,3.48,2.824,6.306,6.309,6.306h25.912C42.339,84.406,41.732,82.955,41.271,81.438z"/><path d="M67.294,52.209c-11.763,0-21.3,9.535-21.3,21.299s9.538,21.303,21.3,21.303c11.769,0,21.302-9.539,21.302-21.303   S79.062,52.209,67.294,52.209z M75.582,84.895l-8.287-4.998l-8.288,4.998l2.192-9.427l-7.313-6.336l9.643-0.828l3.767-8.914   l3.766,8.914l9.643,0.828l-7.313,6.336L75.582,84.895z"/></g><text x="0" y="115" fill="#000000" font-size="5px" font-weight="bold" font-family="'Helvetica Neue', Helvetica, Arial-Unicode, Arial, Sans-serif">Created by Anton Noskov</text><text x="0" y="120" fill="#000000" font-size="5px" font-weight="bold" font-family="'Helvetica Neue', Helvetica, Arial-Unicode, Arial, Sans-serif">from the Noun Project</text></svg>