<svg height='300px' width='300px'  fill="#000000" xmlns="http://www.w3.org/2000/svg" xmlns:xlink="http://www.w3.org/1999/xlink" version="1.1" x="0px" y="0px" viewBox="0 0 100 100" style="enable-background:new 0 0 100 100;" xml:space="preserve"><path d="M85.7,54.1L78.9,54c-0.1,0-0.1-0.1-0.2-0.1c-2.5-15.5-16-27.3-32.1-27.3c-18,0-32.6,14.6-32.6,32.6c0,1.7,1.7,3,3.5,2.3  c1-0.4,1.5-1.4,1.5-2.4c0.1-15.2,12.4-27.5,27.6-27.5c13.3,0,24.5,9.5,27,22.1c0,0.1-0.1,0.2-0.2,0.2L66,53.7  c-0.1,0-0.2,0.1-0.2,0.3l4.8,8.5l4.8,8.5c0.1,0.1,0.2,0.1,0.3,0l5.1-8.3l5.1-8.3C85.9,54.2,85.8,54.1,85.7,54.1z"></path></svg>